<svg width="156" height="80" viewBox="0 0 156 80" fill="none" xmlns="http://www.w3.org/2000/svg">
    <path d="M1 78.9506L31.4198 50.4321L54.8683 56.1358L78.9506 36.4897L96.0617 50.4321L155 1" stroke="#70B2FF" stroke-width="2.53498"/>
    <path d="M19.3715 25.7748C22.2975 25.7748 23.7605 26.7052 23.7605 28.566C23.7605 29.4387 23.5616 30.183 23.1637 30.799C22.7659 31.4022 22.0536 31.877 21.027 32.2235C20.0003 32.5572 18.5758 32.724 16.7535 32.724H8.09102C8.19369 30.2343 8.24502 27.9051 8.24502 25.7363C8.24502 23.5674 8.19369 21.2382 8.09102 18.7485H12.6148V18.7678H16.715C18.3063 18.7678 19.5576 18.9025 20.4687 19.172C21.3927 19.4287 22.0408 19.8073 22.413 20.3078C22.798 20.8083 22.9905 21.4435 22.9905 22.2135C22.9905 22.9964 22.7146 23.6958 22.1627 24.3118C21.6237 24.9149 20.6933 25.4026 19.3715 25.7748ZM12.6148 22.2713V24.0615H16.3107C17.1064 24.0615 17.6582 23.9909 17.9662 23.8498C18.2871 23.7086 18.4475 23.4519 18.4475 23.0798C18.4475 22.7846 18.2807 22.5793 17.947 22.4638C17.6262 22.3354 17.0807 22.2713 16.3107 22.2713H12.6148ZM16.3107 29.2013C16.9781 29.2013 17.485 29.1756 17.8315 29.1243C18.1908 29.0601 18.4475 28.9574 18.6015 28.8163C18.7555 28.6623 18.8325 28.4569 18.8325 28.2003C18.8325 27.8666 18.6464 27.6292 18.2742 27.488C17.9149 27.334 17.2604 27.257 16.3107 27.257H12.6148V29.2013H16.3107ZM29.9311 29.2013C34.8078 29.1756 38.3434 29.105 40.5379 28.9895C40.448 29.5157 40.3903 30.0611 40.3646 30.6258C40.3518 31.1776 40.3454 31.877 40.3454 32.724H25.3881C25.4908 30.2343 25.5421 27.9051 25.5421 25.7363C25.5421 23.5674 25.4908 21.2382 25.3881 18.7485H40.3454V22.2328H29.9311V24.0808C30.5471 24.0936 31.4583 24.1 32.6646 24.1C34.7051 24.1 36.8162 24.0615 38.9979 23.9845V27.2955C36.8162 27.2185 34.7051 27.18 32.6646 27.18C31.4583 27.18 30.5471 27.1864 29.9311 27.1993V29.2013ZM42.1777 31.0685C42.614 30.414 42.9734 29.8044 43.2557 29.2398C43.5509 28.6751 43.8332 28.0206 44.1027 27.2763C45.0139 27.8024 46.0726 28.2131 47.2789 28.5083C48.4853 28.8034 49.6082 28.951 50.6477 28.951C51.7128 28.951 52.4636 28.8612 52.8999 28.6815C53.3363 28.489 53.5544 28.2837 53.5544 28.0655C53.5544 27.2827 52.3609 26.8913 49.9739 26.8913C47.3559 26.8913 45.4566 26.6218 44.2759 26.0828C43.0953 25.5309 42.505 24.6454 42.505 23.4263C42.505 21.6938 43.2236 20.4169 44.6609 19.5955C46.0983 18.7742 47.9655 18.3635 50.2627 18.3635C51.5973 18.3635 52.9641 18.5368 54.3629 18.8833C55.7746 19.217 57.0451 19.679 58.1744 20.2693C57.8022 21.1163 57.4108 22.1494 57.0002 23.3685C56.9232 23.6252 56.859 23.8177 56.8077 23.946C56.1532 23.4199 55.165 22.9835 53.8432 22.637C52.5213 22.2777 51.3535 22.098 50.3397 22.098C49.1205 22.098 48.2992 22.1814 47.8757 22.3483C47.4522 22.5023 47.2404 22.7333 47.2404 23.0413C47.2404 23.3493 47.5292 23.5995 48.1067 23.792C48.697 23.9717 49.544 24.0615 50.6477 24.0615C53.3683 24.0615 55.3447 24.3759 56.5767 25.0048C57.8087 25.6208 58.4247 26.5704 58.4247 27.8538C58.4247 29.6504 57.7702 30.9466 56.4612 31.7423C55.1522 32.5251 53.1694 32.9165 50.5129 32.9165C49.0884 32.9165 47.6383 32.7625 46.1624 32.4545C44.6866 32.1337 43.3584 31.6717 42.1777 31.0685ZM75.8225 22.791C73.8077 22.7269 71.8506 22.6884 69.9513 22.6755V32.724H65.1388V22.6755C63.2267 22.6884 61.276 22.7269 59.2868 22.791V18.7485H75.8225V22.791ZM97.549 18.7485C97.4591 20.9174 97.4142 23.2466 97.4142 25.7363C97.4142 28.2259 97.4591 30.5552 97.549 32.724H93.0252V27.488H85.9412V32.724H81.4175C81.5202 30.2343 81.5715 27.9051 81.5715 25.7363C81.5715 23.5674 81.5202 21.2382 81.4175 18.7485H85.9412V23.9845H93.0252V18.7485H97.549ZM111.331 32.724C111.087 31.9925 110.76 31.0749 110.35 29.9713H104.209L103.246 32.724H98.4146L103.805 18.7485H110.889L116.317 32.724H111.331ZM109.252 26.9683C108.765 25.6208 108.264 24.2733 107.751 22.9258L107.289 21.6745C106.84 22.8424 106.179 24.6069 105.306 26.9683H109.252ZM124.952 32.9165C122.051 32.9165 119.915 32.3005 118.541 31.0685C117.168 29.8365 116.482 28.0783 116.482 25.794C116.482 23.4969 117.168 21.6809 118.541 20.3463C119.915 19.0116 122.051 18.3443 124.952 18.3443C129.007 18.3443 131.721 19.7367 133.094 22.5215C131.939 22.9194 130.586 23.5161 129.033 24.3118C128.661 23.5931 128.07 23.0605 127.262 22.714C126.466 22.3675 125.651 22.1943 124.817 22.1943C123.585 22.1943 122.667 22.5215 122.064 23.176C121.461 23.8177 121.159 24.6134 121.159 25.563C121.159 26.5897 121.48 27.4303 122.122 28.0848C122.776 28.7264 123.771 29.0473 125.106 29.0473C126.171 29.0473 127.018 28.874 127.647 28.5275C128.276 28.1682 128.738 27.6035 129.033 26.8335C130.085 27.3982 131.433 28.0334 133.075 28.7393C132.434 30.2921 131.362 31.3765 129.86 31.9925C128.359 32.6085 126.723 32.9165 124.952 32.9165ZM144.786 32.724C144.183 31.6332 143.182 29.9648 141.783 27.719L139.531 29.952V32.724H134.738C134.84 30.2343 134.892 27.9051 134.892 25.7363C134.892 23.5674 134.84 21.2382 134.738 18.7485H139.531V24.3888C141.892 22.0531 143.573 20.173 144.574 18.7485H150.811L144.748 24.7545C145.646 26.0122 146.653 27.3789 147.77 28.8548C148.899 30.3306 149.919 31.6203 150.831 32.724H144.786ZM16.3291 57.2013C21.2058 57.1756 24.7413 57.105 26.9358 56.9895C26.846 57.5157 26.7882 58.0611 26.7626 58.6258C26.7497 59.1776 26.7433 59.877 26.7433 60.724H11.7861C11.8888 58.2343 11.9401 55.9051 11.9401 53.7363C11.9401 51.5674 11.8888 49.2382 11.7861 46.7485H26.7433V50.2328H16.3291V52.0808C16.9451 52.0936 17.8563 52.1 19.0626 52.1C21.1031 52.1 23.2142 52.0615 25.3958 51.9845V55.2955C23.2142 55.2185 21.1031 55.18 19.0626 55.18C17.8563 55.18 16.9451 55.1864 16.3291 55.1993V57.2013ZM37.7277 53.563L43.3486 60.724H37.7854L35.0134 56.951L32.2222 60.724H26.6589L32.2799 53.563L26.8514 46.7485H32.4147L35.0134 50.2135L37.5929 46.7485H43.1561L37.7277 53.563ZM50.9778 60.9165C48.0775 60.9165 45.9407 60.3005 44.5676 59.0685C43.1944 57.8365 42.5078 56.0783 42.5078 53.794C42.5078 51.4969 43.1944 49.6809 44.5676 48.3463C45.9407 47.0116 48.0775 46.3443 50.9778 46.3443C55.0331 46.3443 57.7474 47.7367 59.1205 50.5215C57.9655 50.9194 56.6116 51.5161 55.0588 52.3118C54.6866 51.5931 54.0963 51.0605 53.2878 50.714C52.4921 50.3675 51.6772 50.1943 50.843 50.1943C49.611 50.1943 48.6935 50.5215 48.0903 51.176C47.4871 51.8177 47.1856 52.6134 47.1856 53.563C47.1856 54.5897 47.5064 55.4303 48.1481 56.0848C48.8025 56.7264 49.7971 57.0473 51.1318 57.0473C52.197 57.0473 53.044 56.874 53.6728 56.5275C54.3016 56.1682 54.7636 55.6035 55.0588 54.8335C56.1111 55.3982 57.4586 56.0334 59.1013 56.7393C58.4596 58.2921 57.388 59.3765 55.8865 59.9925C54.385 60.6085 52.7488 60.9165 50.9778 60.9165ZM76.8951 46.7485C76.8053 48.9174 76.7604 51.2466 76.7604 53.7363C76.7604 56.2259 76.8053 58.5552 76.8951 60.724H72.3714V55.488H65.2874V60.724H60.7637C60.8663 58.2343 60.9177 55.9051 60.9177 53.7363C60.9177 51.5674 60.8663 49.2382 60.7637 46.7485H65.2874V51.9845H72.3714V46.7485H76.8951ZM90.6775 60.724C90.4337 59.9925 90.1064 59.0749 89.6957 57.9713H83.555L82.5925 60.724H77.7608L83.1508 46.7485H90.2347L95.6632 60.724H90.6775ZM88.5985 54.9683C88.1108 53.6208 87.6103 52.2733 87.097 50.9258L86.635 49.6745C86.1858 50.8424 85.5249 52.6069 84.6523 54.9683H88.5985ZM112.561 46.7678C112.472 48.9366 112.427 51.2594 112.427 53.7363C112.427 56.2259 112.472 58.5552 112.561 60.724H105.67L101.011 50.2135L101.358 60.724H96.4107C96.5133 58.2343 96.5647 55.9051 96.5647 53.7363C96.5647 51.5803 96.5133 49.2574 96.4107 46.7678H103.495L108.172 57.567L107.845 46.7678H112.561ZM122.128 52.7545H130.347V60.724H126.959L126.555 57.3168C126.17 58.5359 125.483 59.4407 124.495 60.031C123.507 60.6213 122.301 60.9165 120.876 60.9165C119.58 60.9165 118.425 60.6277 117.411 60.0503C116.41 59.4728 115.621 58.645 115.044 57.567C114.479 56.489 114.197 55.2313 114.197 53.794C114.197 51.4969 114.883 49.6809 116.256 48.3463C117.629 47.0116 119.766 46.3443 122.667 46.3443C124.322 46.3443 125.779 46.6138 127.036 47.1528C128.307 47.6918 129.385 48.526 130.27 49.6553C129.693 49.9504 128.563 50.5408 126.882 51.4263L126.401 51.6958C125.901 51.1953 125.317 50.8231 124.649 50.5793C123.982 50.3226 123.276 50.1943 122.532 50.1943C121.3 50.1943 120.382 50.5215 119.779 51.176C119.176 51.8177 118.874 52.6134 118.874 53.563C118.874 54.5897 119.195 55.4174 119.837 56.0463C120.491 56.6751 121.486 56.9895 122.821 56.9895C123.398 56.9895 123.956 56.9061 124.495 56.7393C125.047 56.5724 125.509 56.2837 125.881 55.873H122.128V52.7545ZM136.525 57.2013C141.402 57.1756 144.938 57.105 147.132 56.9895C147.042 57.5157 146.985 58.0611 146.959 58.6258C146.946 59.1776 146.94 59.877 146.94 60.724H131.982C132.085 58.2343 132.136 55.9051 132.136 53.7363C132.136 51.5674 132.085 49.2382 131.982 46.7485H146.94V50.2328H136.525V52.0808C137.141 52.0936 138.053 52.1 139.259 52.1C141.299 52.1 143.411 52.0615 145.592 51.9845V55.2955C143.411 55.2185 141.299 55.18 139.259 55.18C138.053 55.18 137.141 55.1864 136.525 55.1993V57.2013Z" fill="#EBEBEB"/>
</svg>
